<svg width="172" height="51" viewBox="0 0 172 51" fill="none" xmlns="http://www.w3.org/2000/svg">
<path d="M56.3628 30.3317L52.6794 27.772L50.14 26.0017L41.0682 19.6857C43.8005 17.7487 45.5099 14.4141 45.5099 10.7069C45.5099 7.76463 44.3838 4.92535 42.4232 2.905C40.4311 0.860132 37.8245 -0.164754 35.0877 0.021589C30.296 0.350141 26.3703 4.52814 25.9531 9.75065C25.63 13.811 27.3708 17.577 30.3544 19.6906L22.1216 25.4231L21.2871 26.0017L18.7477 27.772L17.7113 28.4928L15.0642 30.3366C14.6739 30.6112 14.4316 31.0869 14.4316 31.5969V39.1046C14.4316 41.8458 16.473 44.077 18.9765 44.077C20.2552 44.077 21.48 43.4836 22.3414 42.4489C23.2028 41.4191 23.6246 40.0265 23.5034 38.6338L22.9157 31.8862L22.7452 29.9492L20.1565 31.7489L20.3135 33.5437L20.7801 38.9133C20.8294 39.4772 20.6634 40.0167 20.3135 40.4335C19.9635 40.8503 19.4925 41.0857 18.972 41.0857C17.9715 41.0857 17.1595 40.1981 17.1595 39.0997V32.4158L19.1919 30.9986L20.0398 30.4102L22.6285 28.6105L24.3065 27.4434L33.8987 20.7645C34.3429 20.4507 34.5897 19.8867 34.5179 19.313C34.4461 18.7392 34.0827 18.2587 33.5757 18.0821C30.3947 16.9886 28.3803 13.6688 28.6719 10.0204C28.977 6.25427 31.808 3.23846 35.2582 3.00307C37.2367 2.87067 39.1121 3.60624 40.5478 5.08227C41.988 6.5583 42.7776 8.55903 42.7776 10.7069C42.7776 14.1003 40.7945 17.0572 37.8424 18.0723C37.3354 18.2489 36.9675 18.7294 36.9002 19.3032C36.8284 19.8769 37.0752 20.4457 37.5194 20.7547L44.2851 25.4623L48.7985 28.6007L51.3873 30.4004L52.5044 31.1752L54.2676 32.4011V39.0898C54.2676 40.1834 53.4556 41.0759 52.4506 41.0759C51.9301 41.0759 51.459 40.8454 51.1091 40.4237C50.7591 40.0068 50.5976 39.4625 50.6425 38.9035L51.0777 33.8771L51.2616 31.7489L48.6729 29.9492L48.4755 32.2148L47.9147 38.6191C47.7935 40.0117 48.2198 41.3946 49.0767 42.4342C49.9381 43.464 51.1629 44.0623 52.4416 44.0623C54.9451 44.0623 56.9865 41.831 56.9865 39.0898V31.592C56.9954 31.082 56.7576 30.6063 56.3628 30.3317Z" fill="white"/>
<path d="M19.8517 15.6157C19.8517 18.7296 18.1558 21.5346 15.5356 22.7654C15.069 22.9861 14.7505 23.4666 14.7146 24.0159C14.6742 24.57 14.912 25.0996 15.3382 25.3987L17.761 27.0856L20.2914 25.3055L18.6897 24.1924C21.1079 22.1868 22.584 19.0385 22.584 15.6157C22.584 12.6587 21.4534 9.79986 19.4793 7.7746C17.4783 5.71993 14.8627 4.69014 12.1124 4.87648C7.06505 5.21974 3.01371 9.82438 2.89257 15.3558C2.81181 18.8865 4.28788 22.1377 6.7824 24.1924L3.56106 26.4383C3.23355 26.6688 3.00922 27.0366 2.94641 27.4583L0.0166988 47.3332C-0.0999512 48.1473 0.407028 48.9122 1.14731 49.0446C1.89207 49.1721 2.59197 48.618 2.71311 47.8089L2.94641 46.225L5.54411 28.596L10.1338 25.3987C10.5601 25.1045 10.8023 24.57 10.7575 24.0159C10.7171 23.4666 10.3985 22.9861 9.93643 22.7654C7.24451 21.51 5.55309 18.6217 5.62039 15.4245C5.71012 11.4279 8.63085 8.10806 12.2739 7.85797C14.2615 7.72066 16.1548 8.46603 17.5994 9.95187C19.0531 11.4377 19.8517 13.4483 19.8517 15.6157Z" fill="white"/>
<path d="M38.7893 34.6521L38.2329 31.499C39.045 30.7193 39.534 29.5816 39.534 28.3655C39.534 26.0607 37.8202 24.1875 35.716 24.1875C33.6073 24.1875 31.8979 26.0607 31.8979 28.3655C31.8979 29.5816 32.3825 30.7193 33.199 31.499L32.6876 34.4216L30.9064 44.5381C30.8212 45.0236 30.9603 45.5287 31.2833 45.8768L34.7514 49.6674C35.0206 49.9617 35.366 50.1039 35.716 50.1039C36.0659 50.1039 36.4159 49.9568 36.6806 49.6674L40.1487 45.8768C40.4717 45.5287 40.6108 45.0285 40.5256 44.5381L38.7893 34.6521ZM35.7115 27.017C36.3935 27.017 36.9498 27.6201 36.9498 28.3704C36.9498 29.1158 36.3935 29.7238 35.7115 29.7238C35.0251 29.7238 34.4732 29.1158 34.4732 28.3704C34.4732 27.6201 35.0251 27.017 35.7115 27.017ZM35.7115 46.5045L33.7195 44.3272L35.3526 35.0346L35.7115 32.9897L36.0749 35.0689L37.7035 44.3321L35.7115 46.5045Z" fill="white"/>
<path d="M71.4064 47.3332L68.4722 27.4583C68.4497 27.2818 68.3914 27.115 68.3107 26.963V26.9581C68.203 26.7473 68.0459 26.5707 67.8575 26.4383L64.6362 24.1924C67.0544 22.1868 68.5305 19.0385 68.5305 15.6157C68.5305 12.6587 67.3999 9.79986 65.4258 7.7746C63.4248 5.71993 60.8092 4.69014 58.0589 4.87648C53.0116 5.21974 48.9602 9.81947 48.8391 15.3509C48.7583 18.8816 50.2389 22.1328 52.7289 24.1875L51.1182 25.3104L53.6486 27.0856L56.0804 25.3889C56.5066 25.0947 56.7488 24.5602 56.704 24.006C56.6636 23.4568 56.3451 22.9763 55.8829 22.7556C53.191 21.5002 51.4996 18.6119 51.5669 15.4147C51.6566 11.4181 54.5774 8.09825 58.2204 7.84816C60.208 7.71085 62.1013 8.45623 63.546 9.94207C64.9906 11.4279 65.7892 13.4384 65.7892 15.6059C65.7892 18.7198 64.0933 21.5247 61.4732 22.7556C61.0066 22.9763 60.688 23.4568 60.6521 24.006C60.6073 24.5602 60.854 25.0898 61.2758 25.3889L65.861 28.5862L68.2972 45.1069L68.6965 47.7991C68.8042 48.5347 69.3874 49.0545 70.0425 49.0545C70.1142 49.0545 70.186 49.0495 70.2623 49.0397C71.0205 48.9122 71.5275 48.1473 71.4064 47.3332Z" fill="white"/>
<path d="M165.35 25.8878C164.234 25.8878 163.225 25.6472 162.324 25.1659C161.433 24.6846 160.731 24.0241 160.219 23.1844C159.718 22.3345 159.467 21.3822 159.467 20.3274C159.467 19.2727 159.718 18.3255 160.219 17.4858C160.731 16.6359 161.433 15.9703 162.324 15.489C163.225 15.0077 164.234 14.7671 165.35 14.7671C166.466 14.7671 167.469 15.0077 168.36 15.489C169.251 15.9703 169.953 16.6359 170.465 17.4858C170.977 18.3255 171.233 19.2727 171.233 20.3274C171.233 21.3822 170.977 22.3345 170.465 23.1844C169.953 24.0241 169.251 24.6846 168.36 25.1659C167.469 25.6472 166.466 25.8878 165.35 25.8878ZM165.35 23.7681C165.985 23.7681 166.558 23.6247 167.07 23.338C167.582 23.0411 167.981 22.6315 168.268 22.1092C168.565 21.587 168.714 20.993 168.714 20.3274C168.714 19.6618 168.565 19.0679 168.268 18.5457C167.981 18.0234 167.582 17.6189 167.07 17.3322C166.558 17.0353 165.985 16.8868 165.35 16.8868C164.715 16.8868 164.141 17.0353 163.629 17.3322C163.117 17.6189 162.713 18.0234 162.416 18.5457C162.129 19.0679 161.986 19.6618 161.986 20.3274C161.986 20.993 162.129 21.587 162.416 22.1092C162.713 22.6315 163.117 23.0411 163.629 23.338C164.141 23.6247 164.715 23.7681 165.35 23.7681Z" fill="white"/>
<path d="M145.609 14.9512H150.494C151.661 14.9512 152.69 15.1765 153.581 15.627C154.482 16.0673 155.179 16.692 155.67 17.5009C156.172 18.3099 156.423 19.252 156.423 20.3272C156.423 21.4024 156.172 22.3445 155.67 23.1535C155.179 23.9624 154.482 24.5922 153.581 25.0428C152.69 25.4831 151.661 25.7032 150.494 25.7032H145.609V14.9512ZM150.371 23.6603C151.446 23.6603 152.301 23.3634 152.936 22.7695C153.581 22.1653 153.904 21.3512 153.904 20.3272C153.904 19.3032 153.581 18.4942 152.936 17.9003C152.301 17.2961 151.446 16.9941 150.371 16.9941H148.098V23.6603H150.371Z" fill="white"/>
<path d="M139.087 23.3992H134.095L133.143 25.7032H130.593L135.385 14.9512H137.843L142.65 25.7032H140.039L139.087 23.3992ZM138.304 21.5099L136.599 17.3934L134.894 21.5099H138.304Z" fill="white"/>
<path d="M124.253 25.8878C123.157 25.8878 122.164 25.6523 121.273 25.1812C120.393 24.7 119.696 24.0395 119.184 23.1998C118.683 22.3499 118.432 21.3924 118.432 20.3274C118.432 19.2625 118.683 18.3102 119.184 17.4705C119.696 16.6205 120.393 15.9601 121.273 15.489C122.164 15.0077 123.163 14.7671 124.268 14.7671C125.2 14.7671 126.04 14.9309 126.788 15.2586C127.545 15.5863 128.18 16.0573 128.692 16.6717L127.095 18.1463C126.368 17.3066 125.467 16.8868 124.391 16.8868C123.726 16.8868 123.132 17.0353 122.61 17.3322C122.087 17.6189 121.678 18.0234 121.381 18.5457C121.094 19.0679 120.951 19.6618 120.951 20.3274C120.951 20.993 121.094 21.587 121.381 22.1092C121.678 22.6315 122.087 23.0411 122.61 23.338C123.132 23.6247 123.726 23.7681 124.391 23.7681C125.467 23.7681 126.368 23.3431 127.095 22.4932L128.692 23.9678C128.18 24.5924 127.545 25.0686 126.788 25.3963C126.03 25.724 125.185 25.8878 124.253 25.8878Z" fill="white"/>
<path d="M112.819 25.7032L110.746 22.708H110.623H108.457V25.7032H105.969V14.9512H110.623C111.575 14.9512 112.4 15.1099 113.096 15.4273C113.802 15.7448 114.345 16.1953 114.724 16.779C115.103 17.3627 115.292 18.0539 115.292 18.8526C115.292 19.6514 115.098 20.3426 114.709 20.9262C114.33 21.4997 113.787 21.94 113.08 22.2472L115.492 25.7032H112.819ZM112.773 18.8526C112.773 18.2485 112.579 17.7877 112.19 17.4702C111.8 17.1425 111.232 16.9787 110.485 16.9787H108.457V20.7266H110.485C111.232 20.7266 111.8 20.5627 112.19 20.235C112.579 19.9074 112.773 19.4466 112.773 18.8526Z" fill="white"/>
<path d="M102.146 23.7064V25.7032H93.8213V14.9512H101.947V16.948H96.2943V19.2827H101.286V21.2181H96.2943V23.7064H102.146Z" fill="white"/>
<path d="M87.092 25.7032L87.0766 19.252L83.9125 24.5666H82.7912L79.6424 19.3902V25.7032H77.3076V14.9512H79.3659L83.3902 21.6328L87.3531 14.9512H89.396L89.4267 25.7032H87.092Z" fill="white"/>
<path fill-rule="evenodd" clip-rule="evenodd" d="M161.961 25.8433L161.958 25.8415C160.951 25.2976 160.148 24.5435 159.563 23.5842L159.56 23.5795L159.558 23.5748C158.981 22.5985 158.698 21.5097 158.698 20.3274C158.698 19.1452 158.981 18.0599 159.56 17.0918L159.561 17.0895C160.145 16.1194 160.949 15.3584 161.958 14.8132L161.961 14.8115C162.984 14.2654 164.119 13.999 165.349 13.999C166.579 13.999 167.711 14.2654 168.725 14.8132C169.733 15.3581 170.537 16.1185 171.121 17.0877C171.711 18.0562 172 19.143 172 20.3274C172 21.5126 171.711 22.6035 171.122 23.5807L171.12 23.5842C170.535 24.5435 169.732 25.2976 168.725 25.8415C167.711 26.3894 166.579 26.6557 165.349 26.6557C164.119 26.6557 162.984 26.3894 161.961 25.8433ZM170.464 17.4858C169.952 16.6358 169.251 15.9702 168.36 15.489C167.469 15.0077 166.465 14.767 165.349 14.767C164.233 14.767 163.224 15.0077 162.323 15.489C161.432 15.9702 160.731 16.6358 160.219 17.4858C159.717 18.3255 159.466 19.2727 159.466 20.3274C159.466 21.3821 159.717 22.3344 160.219 23.1844C160.731 24.024 161.432 24.6845 162.323 25.1658C163.224 25.6471 164.233 25.8877 165.349 25.8877C166.465 25.8877 167.469 25.6471 168.36 25.1658C169.251 24.6845 169.952 24.024 170.464 23.1844C170.976 22.3344 171.232 21.3821 171.232 20.3274C171.232 19.2727 170.976 18.3255 170.464 17.4858ZM167.597 21.7345L167.6 21.7295C167.824 21.3351 167.945 20.8746 167.945 20.3274C167.945 19.7802 167.824 19.3196 167.6 18.9252L167.597 18.9203L167.594 18.9152C167.376 18.517 167.079 18.2176 166.694 18.0023L166.689 17.9994L166.684 17.9965C166.298 17.7724 165.859 17.6547 165.349 17.6547C164.839 17.6547 164.401 17.7724 164.014 17.9965L164.009 17.9994L164.004 18.0023C163.619 18.218 163.315 18.519 163.086 18.9201C162.87 19.3152 162.753 19.7778 162.753 20.3274C162.753 20.8769 162.87 21.3396 163.086 21.7347C163.315 22.1363 163.621 22.4443 164.009 22.6707C164.396 22.8862 164.837 23 165.349 23C165.861 23 166.302 22.8862 166.689 22.6707C167.077 22.4447 167.375 22.1383 167.594 21.7395L167.597 21.7345ZM167.069 23.338C166.557 23.6247 165.984 23.768 165.349 23.768C164.714 23.768 164.141 23.6247 163.629 23.338C163.117 23.041 162.712 22.6314 162.415 22.1092C162.129 21.5869 161.985 20.993 161.985 20.3274C161.985 19.6618 162.129 19.0679 162.415 18.5456C162.712 18.0234 163.117 17.6189 163.629 17.3322C164.141 17.0352 164.714 16.8867 165.349 16.8867C165.984 16.8867 166.557 17.0352 167.069 17.3322C167.581 17.6189 167.981 18.0234 168.268 18.5456C168.565 19.0679 168.713 19.6618 168.713 20.3274C168.713 20.993 168.565 21.5869 168.268 22.1092C167.981 22.6314 167.581 23.041 167.069 23.338Z" fill="white"/>
<path fill-rule="evenodd" clip-rule="evenodd" d="M144.841 14.1831H150.493C151.759 14.1831 152.909 14.4274 153.923 14.9392C154.944 15.4394 155.753 16.1597 156.324 17.0988C156.909 18.0439 157.19 19.1291 157.19 20.3271C157.19 21.5252 156.909 22.6104 156.324 23.5555C155.753 24.4945 154.945 25.2193 153.924 25.7296L153.921 25.7312C152.907 26.2322 151.758 26.4712 150.493 26.4712H144.841V14.1831ZM155.67 23.1534C156.171 22.3444 156.422 21.4024 156.422 20.3271C156.422 19.2519 156.171 18.3099 155.67 17.5009C155.178 16.6919 154.482 16.0673 153.581 15.627C152.69 15.1764 151.661 14.9511 150.493 14.9511H145.609V25.7032H150.493C151.661 25.7032 152.69 25.483 153.581 25.0427C154.482 24.5921 155.178 23.9624 155.67 23.1534ZM152.411 18.461L152.406 18.4566C151.945 18.0177 151.296 17.762 150.37 17.762H148.865V22.8923H150.37C151.299 22.8923 151.95 22.6397 152.411 22.2088C152.876 21.7733 153.135 21.1756 153.135 20.3271C153.135 19.4784 152.876 18.8891 152.415 18.4653L152.411 18.461ZM152.936 22.7694C152.301 23.3633 151.446 23.6603 150.37 23.6603H148.097V16.994H150.37C151.446 16.994 152.301 17.2961 152.936 17.9002C153.581 18.4942 153.903 19.3031 153.903 20.3271C153.903 21.3512 153.581 22.1652 152.936 22.7694Z" fill="white"/>
<path fill-rule="evenodd" clip-rule="evenodd" d="M140.039 25.7032L139.086 23.3992H134.094L133.142 25.7032H130.592L135.385 14.9511H137.842L142.65 25.7032H140.039ZM134.608 24.1672L133.656 26.4712H129.409L134.886 14.1831H138.34L143.835 26.4712H139.525L138.573 24.1672H134.608ZM136.598 17.3934L134.893 21.5099H138.303L136.598 17.3934ZM136.598 19.4004L136.043 20.7419H137.154L136.598 19.4004Z" fill="white"/>
<path fill-rule="evenodd" clip-rule="evenodd" d="M120.904 25.8551C119.908 25.3106 119.112 24.5567 118.528 23.5996L118.525 23.5949L118.522 23.5902C117.945 22.6127 117.663 21.5185 117.663 20.3274C117.663 19.1364 117.945 18.0457 118.524 17.0765L118.526 17.0741C119.11 16.1053 119.908 15.3483 120.909 14.8125C121.922 14.2657 123.047 13.999 124.268 13.999C125.29 13.999 126.236 14.179 127.093 14.5543C127.957 14.9281 128.69 15.4706 129.282 16.18L129.749 16.7408L127.033 19.2483L126.514 18.649C125.927 17.9714 125.235 17.6547 124.391 17.6547C123.844 17.6547 123.383 17.7755 122.989 17.9998L122.984 18.0026L122.979 18.0054C122.584 18.2222 122.278 18.5229 122.051 18.9202C121.835 19.3153 121.718 19.7779 121.718 20.3274C121.718 20.8769 121.835 21.3395 122.051 21.7346C122.278 22.1325 122.586 22.4401 122.984 22.6675C123.379 22.8832 123.841 23 124.391 23C125.231 23 125.923 22.6811 126.511 21.9939L127.029 21.3878L129.745 23.8946L129.286 24.4546C128.694 25.1761 127.959 25.726 127.092 26.1011C126.226 26.4755 125.276 26.6557 124.253 26.6557C123.043 26.6557 121.925 26.3947 120.914 25.8601L120.904 25.8551ZM121.38 22.1092C121.094 21.5869 120.95 20.993 120.95 20.3274C120.95 19.6618 121.094 19.0679 121.38 18.5456C121.677 18.0234 122.087 17.6189 122.609 17.3322C123.131 17.0352 123.725 16.8867 124.391 16.8867C125.374 16.8867 126.212 17.2378 126.904 17.9399C126.968 18.0056 127.032 18.0744 127.094 18.1462L128.692 16.6717C128.581 16.5389 128.465 16.4129 128.343 16.2935C128.282 16.2342 128.22 16.1766 128.156 16.1206C127.756 15.7676 127.3 15.4803 126.787 15.2586C126.039 14.9309 125.2 14.767 124.268 14.767C123.162 14.767 122.164 15.0077 121.273 15.489C120.392 15.96 119.696 16.6205 119.184 17.4704C118.682 18.3101 118.431 19.2624 118.431 20.3274C118.431 21.3923 118.682 22.3498 119.184 23.1997C119.696 24.0394 120.392 24.6999 121.273 25.1812C122.164 25.6522 123.157 25.8877 124.253 25.8877C125.184 25.8877 126.029 25.7239 126.787 25.3962C127.302 25.1737 127.76 24.8826 128.161 24.523C128.204 24.4848 128.246 24.4457 128.287 24.4059C128.43 24.269 128.564 24.1229 128.692 23.9677L127.094 22.4932C127.02 22.5795 126.945 22.6614 126.867 22.7389C126.182 23.425 125.357 23.768 124.391 23.768C123.725 23.768 123.131 23.6247 122.609 23.338C122.087 23.041 121.677 22.6314 121.38 22.1092Z" fill="white"/>
<path fill-rule="evenodd" clip-rule="evenodd" d="M112.417 26.4712L110.344 23.476H109.226V26.4712H105.201V14.1831H110.623C111.659 14.1831 112.596 14.3554 113.413 14.7276C114.238 15.0985 114.901 15.6401 115.369 16.3608C115.84 17.0866 116.061 17.9279 116.061 18.8526C116.061 19.7807 115.833 20.6245 115.349 21.351C115.044 21.8116 114.658 22.1962 114.199 22.5076L116.965 26.4712H112.417ZM113.081 22.2472C113.327 22.1402 113.553 22.017 113.76 21.8777C114.146 21.6171 114.462 21.2999 114.709 20.9262C115.098 20.3425 115.293 19.6513 115.293 18.8526C115.293 18.0538 115.103 17.3626 114.724 16.779C114.346 16.1953 113.803 15.7447 113.096 15.4273C112.4 15.1098 111.576 14.9511 110.623 14.9511H105.969V25.7032H108.458V22.708H110.746L112.82 25.7032H115.492L113.081 22.2472ZM111.7 18.0615L111.695 18.0576C111.497 17.8905 111.134 17.7466 110.485 17.7466H109.226V19.9585H110.485C111.134 19.9585 111.497 19.8146 111.695 19.6475C111.881 19.4909 112.006 19.2621 112.006 18.8526C112.006 18.4273 111.878 18.207 111.705 18.0653L111.7 18.0615ZM108.458 20.7265V16.9786H110.485C111.233 16.9786 111.801 17.1425 112.19 17.4702C112.579 17.7876 112.774 18.2484 112.774 18.8526C112.774 19.4465 112.579 19.9073 112.19 20.235C111.801 20.5627 111.233 20.7265 110.485 20.7265H108.458Z" fill="white"/>
<path fill-rule="evenodd" clip-rule="evenodd" d="M102.914 22.9384V26.4712H93.0527V14.1831H102.714V17.7159H97.0617V18.5147H102.054V21.986H97.0617V22.9384H102.914ZM96.2937 21.218H101.286V19.2827H96.2937V16.9479H101.946V14.9511H93.8207V25.7032H102.146V23.7064H96.2937V21.218Z" fill="white"/>
<path fill-rule="evenodd" clip-rule="evenodd" d="M86.3253 26.4712L86.3147 22.032L84.3485 25.3345H82.3589L80.4098 22.1305V26.4712H76.5391V14.1831H79.7993L83.3846 20.1358L86.9152 14.1831H90.1613L90.1964 26.4712H86.3253ZM83.3897 21.6328L79.3653 14.9511H77.3071V25.7032H79.6418V19.3902L82.7906 24.5665H83.9119L87.0761 19.2519L87.0914 25.7032H89.4262L89.3955 14.9511H87.3526L83.3897 21.6328Z" fill="white"/>
<path d="M155.45 38.7591H150.458L149.506 41.0631H146.956L151.748 30.311H154.206L159.014 41.0631H156.403L155.45 38.7591ZM154.667 36.8698L152.962 32.7533L151.257 36.8698H154.667Z" fill="white"/>
<path d="M142.676 35.472C143.291 35.6666 143.772 35.9943 144.12 36.4551C144.468 36.9056 144.642 37.4637 144.642 38.1293C144.642 39.0714 144.274 39.7985 143.536 40.3105C142.809 40.8122 141.744 41.0631 140.342 41.0631H134.781V30.311H140.034C141.345 30.311 142.349 30.5619 143.045 31.0637C143.752 31.5654 144.105 32.2464 144.105 33.1066C144.105 33.6288 143.977 34.0947 143.721 34.5043C143.475 34.9139 143.127 35.2365 142.676 35.472ZM137.254 32.185V34.7194H139.727C140.342 34.7194 140.808 34.6119 141.125 34.3968C141.442 34.1818 141.601 33.8643 141.601 33.4445C141.601 33.0247 141.442 32.7123 141.125 32.5075C140.808 32.2925 140.342 32.185 139.727 32.185H137.254ZM140.157 39.1892C140.813 39.1892 141.304 39.0816 141.632 38.8666C141.97 38.6516 142.139 38.3188 142.139 37.8682C142.139 36.9773 141.478 36.5319 140.157 36.5319H137.254V39.1892H140.157Z" fill="white"/>
<path d="M128.052 41.0631L128.037 34.6119L124.872 39.9265H123.751L120.602 34.7501V41.0631H118.268V30.311H120.326L124.35 36.9927L128.313 30.311H130.356L130.387 41.0631H128.052Z" fill="white"/>
<path d="M111.745 38.7591H106.753L105.801 41.0631H103.251L108.043 30.311H110.501L115.309 41.0631H112.697L111.745 38.7591ZM110.962 36.8698L109.257 32.7533L107.552 36.8698H110.962Z" fill="white"/>
<path d="M100.277 30.311V41.0631H97.7889V36.6548H92.9044V41.0631H90.416V30.311H92.9044V34.5504H97.7889V30.311H100.277Z" fill="white"/>
<path d="M82.4533 41.2477C81.3576 41.2477 80.3643 41.0121 79.4735 40.5411C78.5928 40.0598 77.8965 39.3993 77.3845 38.5596C76.8827 37.7097 76.6318 36.7523 76.6318 35.6873C76.6318 34.6223 76.8827 33.67 77.3845 32.8303C77.8965 31.9804 78.5928 31.3199 79.4735 30.8489C80.3643 30.3676 81.3627 30.127 82.4687 30.127C83.4005 30.127 84.2402 30.2908 84.9877 30.6185C85.7455 30.9462 86.3804 31.4172 86.8924 32.0316L85.2949 33.5062C84.5679 32.6665 83.6668 32.2466 82.5916 32.2466C81.9259 32.2466 81.332 32.3951 80.8098 32.6921C80.2875 32.9788 79.8779 33.3833 79.581 33.9055C79.2943 34.4278 79.1509 35.0217 79.1509 35.6873C79.1509 36.3529 79.2943 36.9468 79.581 37.4691C79.8779 37.9913 80.2875 38.4009 80.8098 38.6979C81.332 38.9846 81.9259 39.128 82.5916 39.128C83.6668 39.128 84.5679 38.703 85.2949 37.8531L86.8924 39.3277C86.3804 39.9523 85.7455 40.4285 84.9877 40.7561C84.23 41.0838 83.3852 41.2477 82.4533 41.2477Z" fill="white"/>
<path fill-rule="evenodd" clip-rule="evenodd" d="M156.402 41.0635L155.45 38.7595H150.458L149.505 41.0635H146.956L151.748 30.3115H154.206L159.013 41.0635H156.402ZM150.971 39.5275L150.019 41.8315H145.772L151.249 29.5435H154.703L160.198 41.8315H155.888L154.936 39.5275H150.971ZM152.961 32.7537L151.256 36.8702H154.666L152.961 32.7537ZM152.961 34.7608L152.406 36.1022H153.517L152.961 34.7608Z" fill="white"/>
<path fill-rule="evenodd" clip-rule="evenodd" d="M143.974 40.9417L143.972 40.943C143.062 41.5714 141.815 41.8315 140.341 41.8315H134.013V29.5435H140.034C141.425 29.5435 142.612 29.8068 143.492 30.4396C144.398 31.0841 144.872 31.9968 144.872 33.107C144.872 33.7586 144.711 34.3657 144.375 34.9057C144.284 35.0569 144.183 35.1985 144.071 35.3306C144.318 35.5174 144.539 35.7367 144.73 35.9894C145.197 36.5956 145.41 37.3256 145.41 38.1298C145.41 39.3087 144.93 40.2779 143.974 40.9417ZM144.12 36.4555C143.946 36.225 143.738 36.0279 143.497 35.864C143.257 35.7002 142.983 35.5697 142.676 35.4725C142.957 35.3255 143.198 35.1447 143.399 34.9301C143.521 34.8006 143.628 34.6589 143.72 34.5048C143.976 34.0952 144.104 33.6292 144.104 33.107C144.104 32.2468 143.751 31.5659 143.044 31.0641C142.348 30.5623 141.345 30.3115 140.034 30.3115H134.781V41.0635H140.341C141.744 41.0635 142.809 40.8126 143.536 40.3109C144.273 39.7989 144.642 39.0718 144.642 38.1298C144.642 37.4641 144.468 36.9061 144.12 36.4555ZM140.701 33.1486L140.694 33.1438C140.559 33.0525 140.272 32.9534 139.727 32.9534H138.022V33.9518H139.727C140.272 33.9518 140.559 33.8527 140.694 33.7614C140.778 33.7045 140.833 33.6385 140.833 33.4449C140.833 33.2516 140.779 33.199 140.708 33.1533L140.701 33.1486ZM139.727 34.7198C140.341 34.7198 140.807 34.6123 141.124 34.3972C141.442 34.1822 141.601 33.8648 141.601 33.4449C141.601 33.0251 141.442 32.7128 141.124 32.508C140.807 32.2929 140.341 32.1854 139.727 32.1854H137.254V34.7198H139.727ZM141.219 38.2191C141.305 38.1647 141.37 38.0954 141.37 37.8686C141.37 37.6431 141.304 37.5644 141.213 37.5031C141.069 37.4056 140.755 37.3003 140.157 37.3003H138.022V38.4216H140.157C140.753 38.4216 141.066 38.3194 141.21 38.2249L141.219 38.2191ZM137.254 39.1896V36.5323H140.157C141.478 36.5323 142.138 36.9777 142.138 37.8686C142.138 38.3192 141.969 38.652 141.631 38.867C141.304 39.0821 140.812 39.1896 140.157 39.1896H137.254Z" fill="white"/>
<path fill-rule="evenodd" clip-rule="evenodd" d="M127.285 41.8315L127.275 37.3924L125.308 40.6949H123.319L121.37 37.4908V41.8315H117.499V29.5435H120.759L124.345 35.4961L127.875 29.5435H131.121L131.156 41.8315H127.285ZM124.35 36.9931L120.325 30.3115H118.267V41.0635H120.602V34.7505L123.751 39.9269H124.872L128.036 34.6123L128.051 41.0635H130.386L130.355 30.3115H128.313L124.35 36.9931Z" fill="white"/>
<path fill-rule="evenodd" clip-rule="evenodd" d="M112.697 41.0635L111.745 38.7595H106.753L105.8 41.0635H103.251L108.043 30.3115H110.5L115.308 41.0635H112.697ZM107.266 39.5275L106.314 41.8315H102.067L107.544 29.5435H110.998L116.493 41.8315H112.183L111.231 39.5275H107.266ZM109.256 32.7537L107.551 36.8702H110.961L109.256 32.7537ZM109.256 34.7608L108.701 36.1022H109.812L109.256 34.7608Z" fill="white"/>
<path fill-rule="evenodd" clip-rule="evenodd" d="M101.045 29.5435V41.8315H97.0203V37.4232H93.6718V41.8315H89.6475V29.5435H93.6718V33.7828H97.0203V29.5435H101.045ZM97.7883 34.5508H92.9038V30.3115H90.4155V41.0635H92.9038V36.6552H97.7883V41.0635H100.277V30.3115H97.7883V34.5508Z" fill="white"/>
<path fill-rule="evenodd" clip-rule="evenodd" d="M79.1046 41.2155C78.1083 40.671 77.3118 39.917 76.7282 38.9599L76.7254 38.9552L76.7226 38.9505C76.1455 37.973 75.8633 36.8788 75.8633 35.6877C75.8633 34.4968 76.1455 33.406 76.7247 32.4368L76.7261 32.4345C77.3097 31.4656 78.1081 30.7087 79.1093 30.1728C80.1221 29.626 81.2473 29.3594 82.4681 29.3594C83.4904 29.3594 84.4367 29.5393 85.2938 29.9148C86.1575 30.2886 86.8907 30.831 87.4818 31.5404L87.9492 32.1012L85.2327 34.6087L84.7138 34.0093C84.1271 33.3317 83.4351 33.0151 82.591 33.0151C82.0438 33.0151 81.5833 33.1359 81.1889 33.3601L81.1839 33.363L81.1788 33.3657C80.7839 33.5825 80.4779 33.8833 80.2509 34.2806C80.0351 34.6757 79.9183 35.1382 79.9183 35.6877C79.9183 36.2372 80.0351 36.6998 80.2509 37.0949C80.4783 37.4929 80.7859 37.8004 81.1838 38.0278C81.5789 38.2436 82.0415 38.3604 82.591 38.3604C83.4316 38.3604 84.1229 38.0415 84.7108 37.3543L85.2292 36.7482L87.9448 39.2549L87.4858 39.8149C86.8944 40.5364 86.1596 41.0863 85.292 41.4615C84.4264 41.8358 83.476 42.0161 82.4528 42.0161C81.2431 42.0161 80.1249 41.755 79.1139 41.2205L79.1046 41.2155ZM80.8092 38.6983C80.287 38.4014 79.8774 37.9917 79.5804 37.4695C79.2937 36.9473 79.1503 36.3533 79.1503 35.6877C79.1503 35.0221 79.2937 34.4282 79.5804 33.906C79.8774 33.3837 80.287 32.9792 80.8092 32.6925C81.3315 32.3956 81.9254 32.2471 82.591 32.2471C83.5742 32.2471 84.4119 32.5982 85.104 33.3003C85.1687 33.366 85.2322 33.4348 85.2944 33.5066L86.8918 32.032C86.7812 31.8993 86.6649 31.7732 86.5428 31.6539C86.4821 31.5946 86.42 31.5369 86.3566 31.4809C85.9564 31.128 85.4999 30.8406 84.9872 30.6189C84.2397 30.2912 83.4 30.1274 82.4681 30.1274C81.3622 30.1274 80.3638 30.368 79.4729 30.8493C78.5923 31.3203 77.8959 31.9808 77.3839 32.8308C76.8822 33.6704 76.6313 34.6228 76.6313 35.6877C76.6313 36.7527 76.8822 37.7101 77.3839 38.5601C77.8959 39.3998 78.5923 40.0602 79.4729 40.5415C80.3638 41.0126 81.3571 41.2481 82.4528 41.2481C83.3846 41.2481 84.2294 41.0842 84.9872 40.7566C85.5019 40.534 85.9598 40.2429 86.3611 39.8834C86.4039 39.8451 86.446 39.8061 86.4874 39.7662C86.6298 39.6293 86.7646 39.4833 86.8918 39.3281L85.2944 37.8535C85.2206 37.9398 85.1449 38.0217 85.0675 38.0992C84.3826 38.7853 83.557 39.1284 82.591 39.1284C81.9254 39.1284 81.3315 38.985 80.8092 38.6983Z" fill="white"/>
</svg>
