<svg width="630" height="190" viewBox="0 0 630 190" fill="none" xmlns="http://www.w3.org/2000/svg">
    <path
        d="M206.446 114.506L192.955 104.843L183.653 98.1599L150.425 74.316C160.433 67.0036 166.694 54.4152 166.694 40.4199C166.694 29.3125 162.569 18.5938 155.388 10.9668C148.092 3.24711 138.544 -0.621968 128.52 0.0815012C110.969 1.32183 96.59 17.0943 95.0617 36.81C93.8785 52.1382 100.255 66.3557 111.183 74.3345L81.0277 95.9755L77.9711 98.1599L68.6699 104.843L64.8738 107.564L55.1782 114.525C53.7485 115.562 52.8611 117.357 52.8611 119.283V147.625C52.8611 157.973 60.3382 166.396 69.508 166.396C74.1914 166.396 78.6777 164.156 81.8329 160.25C84.9881 156.363 86.5328 151.105 86.0891 145.848L83.9364 120.375L83.3119 113.062L73.8299 119.856L74.4051 126.632L76.1141 146.903C76.2949 149.032 75.6869 151.068 74.4051 152.642C73.1233 154.215 71.3978 155.104 69.4915 155.104C65.8269 155.104 62.8525 151.753 62.8525 147.606V122.374L70.2968 117.024L73.4026 114.803L82.8846 108.008L89.0307 103.603L124.165 78.3887C125.792 77.2039 126.696 75.075 126.433 72.9091C126.17 70.7431 124.839 68.9289 122.982 68.2625C111.331 64.1342 103.952 51.6014 105.02 37.8282C106.138 23.6107 116.507 12.2256 129.144 11.337C136.391 10.8372 143.26 13.614 148.519 19.1862C153.794 24.7585 156.686 32.3115 156.686 40.4199C156.686 53.2304 149.423 64.3934 138.61 68.2254C136.753 68.8919 135.405 70.7061 135.159 72.872C134.896 75.038 135.8 77.1854 137.427 78.3517L162.208 96.1236L178.74 107.971L188.222 114.765L192.314 117.69L198.772 122.319V147.569C198.772 151.698 195.798 155.067 192.116 155.067C190.21 155.067 188.485 154.197 187.203 152.605C185.921 151.031 185.33 148.976 185.494 146.866L187.088 127.891L187.762 119.856L178.28 113.062L177.557 121.615L175.502 145.792C175.059 151.05 176.62 156.27 179.759 160.195C182.914 164.082 187.4 166.341 192.084 166.341C201.253 166.341 208.73 157.918 208.73 147.569V119.264C208.763 117.339 207.892 115.543 206.446 114.506Z"
        fill="#15363A" />
    <path
        d="M72.7126 58.9507C72.7126 70.7061 66.5008 81.2951 56.9038 85.9417C55.1947 86.7748 54.028 88.589 53.8965 90.6624C53.7486 92.7543 54.6196 94.7536 56.1807 95.8829L65.0547 102.251L74.323 95.5311L68.4564 91.3288C77.3139 83.7573 82.7204 71.8723 82.7204 58.9507C82.7204 47.7878 78.5792 36.9951 71.3486 29.3495C64.0194 21.5928 54.4388 17.7052 44.3652 18.4087C25.8778 19.7045 11.0386 37.0876 10.5949 57.9696C10.2991 71.2985 15.7056 83.5721 24.8425 91.3288L13.0434 99.8075C11.8438 100.678 11.0221 102.066 10.7921 103.658L0.0611641 178.689C-0.3661 181.762 1.49086 184.65 4.20234 185.149C6.93026 185.631 9.49385 183.539 9.93755 180.484L10.7921 174.505L20.3069 107.953L37.1181 95.8829C38.6793 94.7721 39.5667 92.7543 39.4024 90.6624C39.2545 88.589 38.0877 86.7748 36.3951 85.9417C26.5351 81.2026 20.3398 70.2988 20.5863 58.2287C20.915 43.1412 31.613 30.6083 44.9568 29.6642C52.2367 29.1458 59.1716 31.9597 64.4631 37.569C69.7874 43.1782 72.7126 50.7683 72.7126 58.9507Z"
        fill="#15363A" />
    <path
        d="M142.078 130.816L140.04 118.912C143.014 115.969 144.805 111.674 144.805 107.083C144.805 98.3821 138.528 91.3104 130.821 91.3104C123.097 91.3104 116.836 98.3821 116.836 107.083C116.836 111.674 118.611 115.969 121.602 118.912L119.728 129.946L113.204 168.137C112.892 169.969 113.402 171.876 114.585 173.19L127.288 187.501C128.274 188.611 129.539 189.148 130.821 189.148C132.103 189.148 133.384 188.593 134.354 187.501L147.057 173.19C148.24 171.876 148.749 169.988 148.437 168.137L142.078 130.816ZM130.804 101.992C133.302 101.992 135.34 104.269 135.34 107.101C135.34 109.915 133.302 112.211 130.804 112.211C128.29 112.211 126.269 109.915 126.269 107.101C126.269 104.269 128.29 101.992 130.804 101.992ZM130.804 175.56L123.508 167.341L129.49 132.26L130.804 124.54L132.135 132.389L138.101 167.359L130.804 175.56Z"
        fill="#DB5E41" />
    <path
        d="M261.547 178.689L250.8 103.658C250.718 102.992 250.504 102.362 250.208 101.788V101.77C249.814 100.974 249.239 100.307 248.548 99.8075L236.749 91.3288C245.607 83.7573 251.013 71.8723 251.013 58.9507C251.013 47.7878 246.872 36.9951 239.642 29.3495C232.312 21.5928 222.732 17.7052 212.658 18.4087C194.171 19.7045 179.332 37.0691 178.888 57.9511C178.592 71.2799 184.015 83.5536 193.136 91.3103L187.236 95.5496L196.504 102.251L205.411 95.8458C206.972 94.7351 207.86 92.7172 207.695 90.6254C207.547 88.552 206.381 86.7378 204.688 85.9047C194.828 81.1655 188.633 70.2618 188.879 58.1917C189.208 43.1042 199.906 30.5713 213.25 29.6272C220.53 29.1088 227.465 31.9227 232.756 37.5319C238.048 43.1412 240.973 50.7312 240.973 58.9137C240.973 70.669 234.761 81.2581 225.164 85.9047C223.455 86.7378 222.288 88.552 222.157 90.6254C221.992 92.7172 222.896 94.7166 224.441 95.8458L241.236 107.916L250.159 170.284L251.621 180.447C252.016 183.224 254.152 185.186 256.551 185.186C256.814 185.186 257.077 185.168 257.357 185.131C260.134 184.65 261.991 181.762 261.547 178.689Z"
        fill="#15363A" />
    <path
        d="M605.639 91.9929C601.551 91.9929 597.856 91.1115 594.556 89.3487C591.293 87.5858 588.723 85.1666 586.848 82.091C585.01 78.9779 584.091 75.4898 584.091 71.6265C584.091 67.7633 585.01 64.2939 586.848 61.2183C588.723 58.1052 591.293 55.6672 594.556 53.9044C597.856 52.1415 601.551 51.2601 605.639 51.2601C609.727 51.2601 613.403 52.1415 616.666 53.9044C619.929 55.6672 622.499 58.1052 624.374 61.2183C626.249 64.2939 627.187 67.7633 627.187 71.6265C627.187 75.4898 626.249 78.9779 624.374 82.091C622.499 85.1666 619.929 87.5858 616.666 89.3487C613.403 91.1115 609.727 91.9929 605.639 91.9929ZM605.639 84.229C607.965 84.229 610.065 83.7039 611.94 82.6537C613.816 81.5659 615.278 80.0657 616.329 78.1528C617.416 76.2399 617.96 74.0645 617.96 71.6265C617.96 69.1886 617.416 67.0131 616.329 65.1003C615.278 63.1874 613.816 61.7059 611.94 60.6557C610.065 59.568 607.965 59.0241 605.639 59.0241C603.314 59.0241 601.213 59.568 599.338 60.6557C597.463 61.7059 595.981 63.1874 594.893 65.1003C593.843 67.0131 593.318 69.1886 593.318 71.6265C593.318 74.0645 593.843 76.2399 594.893 78.1528C595.981 80.0657 597.463 81.5659 599.338 82.6537C601.213 83.7039 603.314 84.229 605.639 84.229Z"
        fill="#15363A" />
    <path
        d="M533.334 51.9352H551.225C555.501 51.9352 559.27 52.7604 562.534 54.4107C565.834 56.0235 568.385 58.3114 570.185 61.2745C572.023 64.2376 572.942 67.6882 572.942 71.6265C572.942 75.5647 572.023 79.0154 570.185 81.9785C568.385 84.9415 565.834 87.2482 562.534 88.8986C559.27 90.5114 555.501 91.3178 551.225 91.3178H533.334V51.9352ZM550.775 83.8351C554.713 83.8351 557.845 82.7474 560.171 80.572C562.534 78.359 563.715 75.3772 563.715 71.6265C563.715 67.8758 562.534 64.9127 560.171 62.7373C557.845 60.5243 554.713 59.4179 550.775 59.4179H542.448V83.8351H550.775Z"
        fill="#15363A" />
    <path
        d="M509.444 82.8786H491.16L487.672 91.3178H478.332L495.886 51.9352H504.887L522.497 91.3178H512.933L509.444 82.8786ZM506.575 75.9586L500.33 60.8807L494.085 75.9586H506.575Z"
        fill="#15363A" />
    <path
        d="M455.112 91.9929C451.098 91.9929 447.46 91.1303 444.197 89.4049C440.972 87.6421 438.421 85.2229 436.546 82.1473C434.708 79.0342 433.789 75.5273 433.789 71.6265C433.789 67.7258 434.708 64.2376 436.546 61.162C438.421 58.0489 440.972 55.6297 444.197 53.9044C447.46 52.1415 451.117 51.2601 455.168 51.2601C458.581 51.2601 461.657 51.8602 464.395 53.0605C467.17 54.2607 469.496 55.986 471.371 58.2365L465.52 63.6375C462.857 60.5619 459.556 59.0241 455.618 59.0241C453.18 59.0241 451.005 59.568 449.092 60.6557C447.179 61.7059 445.679 63.1874 444.591 65.1003C443.541 67.0131 443.016 69.1886 443.016 71.6265C443.016 74.0645 443.541 76.2399 444.591 78.1528C445.679 80.0657 447.179 81.5659 449.092 82.6537C451.005 83.7039 453.18 84.229 455.618 84.229C459.556 84.229 462.857 82.6724 465.52 79.5593L471.371 84.9603C469.496 87.2483 467.17 88.9924 464.395 90.1926C461.619 91.3928 458.525 91.9929 455.112 91.9929Z"
        fill="#15363A" />
    <path
        d="M413.234 91.3178L405.639 80.3469H405.189H397.256V91.3178H388.142V51.9352H405.189C408.677 51.9352 411.696 52.5166 414.247 53.6793C416.835 54.842 418.823 56.4923 420.211 58.6302C421.598 60.7681 422.292 63.2999 422.292 66.2254C422.292 69.151 421.58 71.6827 420.154 73.8207C418.767 75.9211 416.779 77.5339 414.191 78.6591L423.024 91.3178H413.234ZM413.065 66.2254C413.065 64.0125 412.353 62.3247 410.928 61.162C409.502 59.9617 407.421 59.3616 404.683 59.3616H397.256V73.0893H404.683C407.421 73.0893 409.502 72.4892 410.928 71.2889C412.353 70.0887 413.065 68.4009 413.065 66.2254Z"
        fill="#15363A" />
    <path
        d="M374.139 84.0039V91.3178H343.645V51.9352H373.407V59.2491H352.703V67.8007H370.988V74.8896H352.703V84.0039H374.139Z"
        fill="#15363A" />
    <path
        d="M318.999 91.3178L318.942 67.6882L307.353 87.1545H303.245L291.712 68.1946V91.3178H283.16V51.9352H290.699L305.44 76.4087L319.955 51.9352H327.438L327.55 91.3178H318.999Z"
        fill="#15363A" />
    <path fill-rule="evenodd" clip-rule="evenodd"
        d="M593.231 91.83L593.219 91.8237C589.531 89.8315 586.589 87.0692 584.446 83.5555L584.436 83.5384L584.426 83.5211C582.315 79.945 581.278 75.957 581.278 71.6265C581.278 67.2964 582.315 63.3212 584.433 59.7753L584.439 59.7667C586.579 56.2135 589.523 53.4262 593.219 51.4294L593.231 51.423C596.976 49.4227 601.132 48.4471 605.639 48.4471C610.146 48.4471 614.289 49.4226 618.003 51.4294C621.697 53.425 624.64 56.2102 626.78 59.7604C628.941 63.3075 630 67.2882 630 71.6265C630 75.9678 628.94 79.9635 626.784 83.5426L626.776 83.5556C624.633 87.0692 621.691 89.8315 618.003 91.8237C614.289 93.8305 610.146 94.806 605.639 94.806C601.132 94.806 596.976 93.8304 593.231 91.83ZM624.374 61.2183C622.499 58.1052 619.93 55.6672 616.666 53.9044C613.403 52.1415 609.728 51.2601 605.639 51.2601C601.551 51.2601 597.857 52.1415 594.556 53.9044C591.293 55.6672 588.724 58.1052 586.848 61.2183C585.01 64.2939 584.091 67.7633 584.091 71.6265C584.091 75.4898 585.01 78.978 586.848 82.0911C588.724 85.1666 591.293 87.5859 594.556 89.3487C597.857 91.1115 601.551 91.993 605.639 91.993C609.728 91.993 613.403 91.1115 616.666 89.3487C619.93 87.5859 622.499 85.1666 624.374 82.0911C626.249 78.978 627.187 75.4898 627.187 71.6265C627.187 67.7633 626.249 64.2939 624.374 61.2183ZM613.873 76.7806L613.883 76.7623C614.705 75.3177 615.147 73.6308 615.147 71.6265C615.147 69.6222 614.705 67.9354 613.883 66.4908L613.873 66.4725L613.863 66.4541C613.062 64.9956 611.974 63.8987 610.566 63.1101L610.547 63.0997L610.529 63.089C609.114 62.2681 607.506 61.8372 605.639 61.8372C603.772 61.8372 602.165 62.2681 600.749 63.089L600.731 63.0997L600.713 63.1101C599.301 63.9002 598.189 65.0029 597.35 66.4718C596.559 67.919 596.131 69.6136 596.131 71.6265C596.131 73.6394 596.559 75.3339 597.35 76.7811C598.19 78.2522 599.308 79.3803 600.731 80.2096C602.148 80.9989 603.763 81.4159 605.639 81.4159C607.516 81.4159 609.131 80.9989 610.548 80.2096C611.968 79.3818 613.061 78.2595 613.863 76.799L613.873 76.7806ZM611.94 82.6537C610.065 83.7039 607.965 84.229 605.639 84.229C603.314 84.229 601.213 83.7039 599.338 82.6537C597.463 81.5659 595.981 80.0657 594.893 78.1528C593.843 76.2399 593.318 74.0645 593.318 71.6265C593.318 69.1886 593.843 67.0132 594.893 65.1003C595.981 63.1874 597.463 61.7059 599.338 60.6557C601.213 59.568 603.314 59.0241 605.639 59.0241C607.965 59.0241 610.065 59.568 611.94 60.6557C613.816 61.7059 615.279 63.1874 616.329 65.1003C617.417 67.0132 617.96 69.1886 617.96 71.6265C617.96 74.0645 617.417 76.2399 616.329 78.1528C615.279 80.0657 613.816 81.5659 611.94 82.6537Z"
        fill="#15363A" />
    <path fill-rule="evenodd" clip-rule="evenodd"
        d="M530.521 49.1222H551.225C555.86 49.1222 560.072 50.0171 563.786 51.8916C567.528 53.7236 570.489 56.3619 572.582 59.8019C574.726 63.2635 575.755 67.2382 575.755 71.6265C575.755 76.0148 574.726 79.9895 572.582 83.4511C570.489 86.8906 567.53 89.5455 563.792 91.4146L563.78 91.4204C560.067 93.2555 555.858 94.1308 551.225 94.1308H530.521V49.1222ZM570.185 81.9785C572.023 79.0154 572.942 75.5647 572.942 71.6265C572.942 67.6882 572.023 64.2376 570.185 61.2745C568.385 58.3114 565.834 56.0235 562.534 54.4107C559.271 52.7604 555.501 51.9352 551.225 51.9352H533.334V91.3178H551.225C555.501 91.3178 559.271 90.5114 562.534 88.8986C565.834 87.2482 568.385 84.9416 570.185 81.9785ZM558.248 64.7911L558.232 64.7751C556.542 63.1674 554.164 62.2309 550.775 62.2309H545.262V81.022H550.775C554.176 81.022 556.56 80.097 558.248 78.5187C559.951 76.9233 560.902 74.7341 560.902 71.6265C560.902 68.5178 559.952 66.3591 558.265 64.8068L558.248 64.7911ZM560.171 80.572C557.845 82.7474 554.713 83.8351 550.775 83.8351H542.449V59.4179H550.775C554.713 59.4179 557.845 60.5244 560.171 62.7373C562.534 64.9127 563.715 67.8758 563.715 71.6265C563.715 75.3772 562.534 78.359 560.171 80.572Z"
        fill="#15363A" />
    <path fill-rule="evenodd" clip-rule="evenodd"
        d="M512.933 91.3178L509.445 82.8787H491.16L487.672 91.3178H478.332L495.886 51.9352H504.888L522.497 91.3178H512.933ZM493.041 85.6917L489.553 94.1308H473.999L494.06 49.1222H506.711L526.836 94.1308H511.052L507.564 85.6917H493.041ZM500.33 60.8807L494.085 75.9586H506.575L500.33 60.8807ZM500.33 68.232L498.295 73.1455H502.366L500.33 68.232Z"
        fill="#15363A" />
    <path fill-rule="evenodd" clip-rule="evenodd"
        d="M442.848 91.8734C439.199 89.8791 436.282 87.1175 434.144 83.6118L434.134 83.5947L434.123 83.5774C432.01 79.997 430.976 75.9892 430.976 71.6265C430.976 67.2642 432.01 63.2692 434.131 59.7191L434.136 59.7105C436.274 56.1618 439.198 53.3893 442.865 51.4266C446.575 49.4237 450.697 48.4471 455.168 48.4471C458.912 48.4471 462.378 49.1061 465.517 50.4809C468.681 51.8502 471.367 53.837 473.532 56.4356L475.244 58.4898L465.294 67.6742L463.393 65.4789C461.245 62.9971 458.71 61.8372 455.618 61.8372C453.614 61.8372 451.927 62.2796 450.482 63.101L450.464 63.1114L450.446 63.1215C448.999 63.9156 447.879 65.0171 447.047 66.4723C446.257 67.9195 445.829 69.6138 445.829 71.6265C445.829 73.6392 446.257 75.3336 447.047 76.7807C447.88 78.2384 449.006 79.3649 450.464 80.1978C451.911 80.9881 453.606 81.4159 455.618 81.4159C458.697 81.4159 461.229 80.2478 463.382 77.7307L465.282 75.5108L475.228 84.6923L473.547 86.7436C471.381 89.3863 468.689 91.4004 465.511 92.7746C462.341 94.1457 458.86 94.806 455.112 94.806C450.681 94.806 446.585 93.8497 442.882 91.8918L442.848 91.8734ZM444.591 78.1528C443.541 76.2399 443.016 74.0645 443.016 71.6265C443.016 69.1886 443.541 67.0132 444.591 65.1003C445.679 63.1874 447.179 61.7059 449.092 60.6557C451.005 59.568 453.18 59.0241 455.618 59.0241C459.219 59.0241 462.288 60.31 464.823 62.8818C465.06 63.1224 465.292 63.3743 465.52 63.6375L471.371 58.2365C470.966 57.7502 470.54 57.2885 470.093 56.8514C469.871 56.6342 469.643 56.423 469.411 56.2179C467.945 54.9251 466.273 53.8726 464.395 53.0605C461.657 51.8602 458.581 51.2601 455.168 51.2601C451.117 51.2601 447.46 52.1415 444.197 53.9044C440.972 55.6297 438.421 58.0489 436.546 61.162C434.708 64.2376 433.789 67.7258 433.789 71.6265C433.789 75.5273 434.708 79.0342 436.546 82.1473C438.421 85.2229 440.972 87.6421 444.197 89.405C447.46 91.1303 451.099 91.993 455.112 91.993C458.525 91.993 461.619 91.3928 464.395 90.1926C466.28 89.3774 467.958 88.3113 469.427 86.9944C469.584 86.8541 469.738 86.7111 469.89 86.5652C470.411 86.0638 470.905 85.5289 471.371 84.9604L465.52 79.5593C465.25 79.8754 464.973 80.1755 464.689 80.4595C462.18 82.9725 459.157 84.229 455.618 84.229C453.18 84.229 451.005 83.7039 449.092 82.6537C447.179 81.5659 445.679 80.0657 444.591 78.1528Z"
        fill="#15363A" />
    <path fill-rule="evenodd" clip-rule="evenodd"
        d="M411.76 94.1308L404.165 83.16H400.069V94.1308H385.329V49.1222H405.189C408.981 49.1222 412.414 49.7534 415.407 51.1166C418.427 52.475 420.857 54.4589 422.57 57.0986C424.296 59.7571 425.105 62.8387 425.105 66.2255C425.105 69.6251 424.271 72.7157 422.498 75.3765C421.382 77.0636 419.967 78.4725 418.286 79.6129L428.417 94.1308H411.76ZM414.191 78.6591C415.092 78.2672 415.921 77.8161 416.677 77.3058C418.091 76.3512 419.25 75.1895 420.154 73.8207C421.58 71.6828 422.292 69.151 422.292 66.2255C422.292 63.2999 421.598 60.7682 420.211 58.6302C418.823 56.4923 416.835 54.842 414.247 53.6793C411.697 52.5166 408.677 51.9352 405.189 51.9352H388.142V91.3178H397.256V80.3469H405.639L413.234 91.3178H423.024L414.191 78.6591ZM409.132 63.3278L409.116 63.3137C408.389 62.7017 407.06 62.1747 404.683 62.1747H400.069V70.2762H404.683C407.06 70.2762 408.389 69.7492 409.116 69.1372C409.797 68.5635 410.253 67.7255 410.253 66.2255C410.253 64.6678 409.786 63.8607 409.149 63.3417L409.132 63.3278ZM397.256 73.0893V59.3616H404.683C407.421 59.3616 409.502 59.9617 410.928 61.162C412.353 62.3247 413.066 64.0125 413.066 66.2255C413.066 68.4009 412.353 70.0887 410.928 71.2889C409.502 72.4892 407.421 73.0893 404.683 73.0893H397.256Z"
        fill="#15363A" />
    <path fill-rule="evenodd" clip-rule="evenodd"
        d="M376.952 81.1908V94.1308H340.832V49.1222H376.22V62.0622H355.516V64.9877H373.801V77.7027H355.516V81.1908H376.952ZM352.703 74.8896H370.988V67.8008H352.703V59.2491H373.407V51.9352H343.645V91.3178H374.139V84.0039H352.703V74.8896Z"
        fill="#15363A" />
    <path fill-rule="evenodd" clip-rule="evenodd"
        d="M316.192 94.1308L316.154 77.8712L308.952 89.9675H301.664L294.525 78.2317V94.1308H280.347V49.1222H292.289L305.421 70.9256L318.353 49.1222H330.243L330.371 94.1308H316.192ZM305.44 76.4087L290.699 51.9352H283.161V91.3178H291.712V68.1946L303.246 87.1545H307.353L318.942 67.6882L318.999 91.3178H327.55L327.438 51.9352H319.955L305.44 76.4087Z"
        fill="#15363A" />
    <path
        d="M569.38 139.139H551.095L547.607 147.579H538.268L555.821 108.196H564.823L582.432 147.579H572.868L569.38 139.139ZM566.511 132.219L560.266 117.141L554.021 132.219H566.511Z"
        fill="#15363A" />
    <path
        d="M522.591 127.1C524.841 127.812 526.604 129.013 527.879 130.7C529.154 132.351 529.792 134.395 529.792 136.833C529.792 140.283 528.442 142.946 525.741 144.822C523.078 146.66 519.177 147.579 514.039 147.579H493.673V108.196H512.914C517.715 108.196 521.39 109.115 523.941 110.953C526.529 112.791 527.823 115.285 527.823 118.435C527.823 120.348 527.354 122.055 526.416 123.555C525.516 125.055 524.241 126.237 522.591 127.1ZM502.73 115.06V124.343H511.788C514.039 124.343 515.745 123.949 516.908 123.161C518.071 122.374 518.652 121.211 518.652 119.673C518.652 118.135 518.071 116.991 516.908 116.241C515.745 115.454 514.039 115.06 511.788 115.06H502.73ZM513.364 140.715C515.764 140.715 517.565 140.321 518.765 139.533C520.003 138.746 520.621 137.527 520.621 135.876C520.621 132.613 518.202 130.982 513.364 130.982H502.73V140.715H513.364Z"
        fill="#15363A" />
    <path
        d="M469.026 147.579L468.97 123.949L457.38 143.415H453.273L441.739 124.455V147.579H433.188V108.196H440.727L455.467 132.669L469.982 108.196H477.465L477.577 147.579H469.026Z"
        fill="#15363A" />
    <path
        d="M409.298 139.139H391.013L387.525 147.579H378.186L395.739 108.196H404.741L422.35 147.579H412.786L409.298 139.139ZM406.429 132.219L400.184 117.141L393.939 132.219H406.429Z"
        fill="#15363A" />
    <path
        d="M367.293 108.196V147.579H358.179V131.432H340.288V147.579H331.173V108.196H340.288V123.724H358.179V108.196H367.293Z"
        fill="#15363A" />
    <path
        d="M302.008 148.254C297.995 148.254 294.356 147.391 291.093 145.666C287.868 143.903 285.317 141.484 283.442 138.408C281.604 135.295 280.685 131.788 280.685 127.887C280.685 123.987 281.604 120.498 283.442 117.423C285.317 114.31 287.868 111.89 291.093 110.165C294.356 108.402 298.013 107.521 302.064 107.521C305.477 107.521 308.553 108.121 311.291 109.321C314.066 110.521 316.392 112.247 318.267 114.497L312.416 119.898C309.753 116.823 306.452 115.285 302.514 115.285C300.076 115.285 297.901 115.829 295.988 116.916C294.075 117.967 292.575 119.448 291.487 121.361C290.437 123.274 289.912 125.449 289.912 127.887C289.912 130.325 290.437 132.501 291.487 134.414C292.575 136.326 294.075 137.827 295.988 138.914C297.901 139.965 300.076 140.49 302.514 140.49C306.452 140.49 309.753 138.933 312.416 135.82L318.267 141.221C316.392 143.509 314.066 145.253 311.291 146.453C308.515 147.654 305.421 148.254 302.008 148.254Z"
        fill="#15363A" />
    <path fill-rule="evenodd" clip-rule="evenodd"
        d="M572.868 147.579L569.38 139.139H551.095L547.607 147.579H538.268L555.821 108.196H564.823L582.433 147.579H572.868ZM552.977 141.952L549.488 150.392H533.934L553.995 105.383H566.647L586.772 150.392H570.987L567.499 141.952H552.977ZM560.266 117.141L554.021 132.219H566.511L560.266 117.141ZM560.266 124.493L558.231 129.406H562.301L560.266 124.493Z"
        fill="#15363A" />
    <path fill-rule="evenodd" clip-rule="evenodd"
        d="M527.346 147.132L527.339 147.137C524.004 149.439 519.439 150.392 514.039 150.392H490.86V105.383H512.914C518.009 105.383 522.357 106.348 525.579 108.666C528.897 111.026 530.636 114.369 530.636 118.435C530.636 120.822 530.046 123.046 528.816 125.024C528.482 125.578 528.11 126.096 527.701 126.58C528.606 127.264 529.414 128.068 530.115 128.993C531.826 131.213 532.605 133.887 532.605 136.833C532.605 141.151 530.847 144.701 527.346 147.132ZM527.879 130.7C527.241 129.856 526.482 129.134 525.6 128.534C524.719 127.934 523.716 127.456 522.591 127.1C523.62 126.561 524.504 125.899 525.241 125.113C525.686 124.639 526.078 124.12 526.416 123.555C527.354 122.055 527.823 120.348 527.823 118.435C527.823 115.285 526.529 112.791 523.941 110.953C521.39 109.115 517.715 108.196 512.914 108.196H493.673V147.579H514.039C519.178 147.579 523.078 146.66 525.741 144.822C528.442 142.946 529.792 140.283 529.792 136.833C529.792 134.395 529.154 132.351 527.879 130.7ZM515.357 118.588L515.331 118.57C514.837 118.236 513.787 117.873 511.789 117.873H505.544V121.53H511.789C513.787 121.53 514.837 121.167 515.331 120.832C515.638 120.624 515.839 120.382 515.839 119.673C515.839 118.965 515.643 118.772 515.383 118.605L515.357 118.588ZM511.789 124.343C514.039 124.343 515.746 123.949 516.908 123.161C518.071 122.374 518.652 121.211 518.652 119.673C518.652 118.135 518.071 116.991 516.908 116.241C515.746 115.454 514.039 115.06 511.789 115.06H502.731V124.343H511.789ZM517.255 137.16C517.568 136.961 517.809 136.707 517.809 135.876C517.809 135.05 517.567 134.762 517.234 134.538C516.704 134.18 515.555 133.795 513.364 133.795H505.544V137.902H513.364C515.546 137.902 516.694 137.527 517.222 137.181L517.255 137.16ZM502.731 140.715V130.982H513.364C518.202 130.982 520.622 132.613 520.622 135.876C520.622 137.527 520.003 138.746 518.765 139.533C517.565 140.321 515.764 140.715 513.364 140.715H502.731Z"
        fill="#15363A" />
    <path fill-rule="evenodd" clip-rule="evenodd"
        d="M466.22 150.392L466.181 134.132L458.979 146.228H451.691L444.552 134.492V150.392H430.375V105.383H442.316L455.449 127.186L468.38 105.383H480.27L480.399 150.392H466.22ZM455.467 132.669L440.727 108.196H433.188V147.579H441.739V124.455L453.273 143.415H457.38L468.97 123.949L469.026 147.579H477.578L477.465 108.196H469.982L455.467 132.669Z"
        fill="#15363A" />
    <path fill-rule="evenodd" clip-rule="evenodd"
        d="M412.786 147.579L409.298 139.139H391.013L387.525 147.579H378.186L395.739 108.196H404.741L422.351 147.579H412.786ZM392.895 141.952L389.406 150.392H373.852L393.913 105.383H406.565L426.69 150.392H410.905L407.417 141.952H392.895ZM400.184 117.141L393.939 132.219H406.429L400.184 117.141ZM400.184 124.493L398.149 129.406H402.219L400.184 124.493Z"
        fill="#15363A" />
    <path fill-rule="evenodd" clip-rule="evenodd"
        d="M370.106 105.383V150.392H355.366V134.245H343.101V150.392H328.36V105.383H343.101V120.911H355.366V105.383H370.106ZM358.179 123.724H340.288V108.196H331.174V147.579H340.288V131.432H358.179V147.579H367.293V108.196H358.179V123.724Z"
        fill="#15363A" />
    <path fill-rule="evenodd" clip-rule="evenodd"
        d="M289.744 148.134C286.095 146.14 283.178 143.378 281.04 139.873L281.03 139.855L281.019 139.838C278.906 136.258 277.872 132.25 277.872 127.887C277.872 123.525 278.906 119.53 281.027 115.98L281.032 115.971C283.17 112.423 286.094 109.65 289.761 107.687C293.471 105.685 297.593 104.708 302.064 104.708C305.809 104.708 309.274 105.367 312.414 106.742C315.578 108.111 318.263 110.098 320.428 112.696L322.14 114.751L312.19 123.935L310.289 121.74C308.141 119.258 305.606 118.098 302.514 118.098C300.51 118.098 298.823 118.54 297.378 119.362L297.36 119.372L297.342 119.382C295.895 120.176 294.774 121.278 293.943 122.733C293.153 124.18 292.725 125.875 292.725 127.887C292.725 129.9 293.153 131.594 293.943 133.041C294.776 134.499 295.902 135.626 297.36 136.459C298.807 137.249 300.501 137.677 302.514 137.677C305.593 137.677 308.125 136.509 310.278 133.992L312.177 131.772L322.124 140.953L320.443 143.004C318.277 145.647 315.585 147.661 312.407 149.035C309.237 150.406 305.756 151.067 302.008 151.067C297.577 151.067 293.481 150.11 289.778 148.153L289.744 148.134ZM295.988 138.914C294.075 137.827 292.575 136.326 291.487 134.414C290.437 132.501 289.912 130.325 289.912 127.887C289.912 125.449 290.437 123.274 291.487 121.361C292.575 119.448 294.075 117.967 295.988 116.916C297.901 115.829 300.076 115.285 302.514 115.285C306.115 115.285 309.184 116.571 311.719 119.143C311.956 119.383 312.188 119.635 312.416 119.898L318.267 114.497C317.862 114.011 317.436 113.549 316.989 113.112C316.766 112.895 316.539 112.684 316.307 112.479C314.841 111.186 313.169 110.133 311.291 109.321C308.553 108.121 305.477 107.521 302.064 107.521C298.013 107.521 294.356 108.402 291.093 110.165C287.868 111.891 285.317 114.31 283.442 117.423C281.604 120.498 280.685 123.987 280.685 127.887C280.685 131.788 281.604 135.295 283.442 138.408C285.317 141.484 287.868 143.903 291.093 145.666C294.356 147.391 297.995 148.254 302.008 148.254C305.421 148.254 308.515 147.654 311.291 146.453C313.176 145.638 314.854 144.572 316.323 143.255C316.48 143.115 316.634 142.972 316.786 142.826C317.307 142.325 317.801 141.79 318.267 141.221L312.416 135.82C312.146 136.136 311.869 136.436 311.585 136.72C309.076 139.233 306.053 140.49 302.514 140.49C300.076 140.49 297.901 139.965 295.988 138.914Z"
        fill="#15363A" />
</svg>
    